<svg xmlns="http://www.w3.org/2000/svg" viewBox="80 80 928 396" font-family="ui-sans-serif, system-ui, sans-serif">
  <defs>
    <marker id="a" viewBox="0 0 10 10" refX="9" refY="5" markerWidth="7" markerHeight="7" orient="auto-start-reverse">
      <path d="M0,0 L10,5 L0,10 z" fill="#94A3B8"/>
    </marker>
    <marker id="ao" viewBox="0 0 10 10" refX="9" refY="5" markerWidth="7" markerHeight="7" orient="auto-start-reverse">
      <path d="M0,0 L10,5 L0,10 z" fill="#F97316"/>
    </marker>
  </defs>
  <rect x="0" y="0" width="1100" height="540" fill="#ffffff"/>

  <!-- ===== Band 1: Trainer ===== -->
  <rect x="88" y="86" width="908" height="66" rx="14" fill="#EEF2F9" stroke="#C7D2DE" stroke-width="1.4"/>
  <text x="104" y="116" text-anchor="start" font-size="17" font-weight="800" fill="#475569">Trainer</text>
  <text x="104" y="133" text-anchor="start" font-size="11" font-weight="600" fill="#64748B" letter-spacing="0.5">Unified</text>
  <rect x="200" y="102" width="150" height="34" rx="8" fill="#FFFFFF" stroke="#94A3B8" stroke-width="1.2"/>
  <text x="275" y="124" text-anchor="middle" font-size="15" font-weight="600" fill="#334155">Diffusion</text>
  <rect x="400" y="102" width="150" height="34" rx="8" fill="#FFFFFF" stroke="#94A3B8" stroke-width="1.2"/>
  <text x="475" y="124" text-anchor="middle" font-size="15" font-weight="600" fill="#334155">Autoregressive</text>
  <rect x="600" y="102" width="150" height="34" rx="8" fill="#FFFFFF" stroke="#94A3B8" stroke-width="1.2"/>
  <text x="675" y="124" text-anchor="middle" font-size="15" font-weight="600" fill="#334155">Prompt-Enhancer</text>
  <rect x="800" y="102" width="150" height="34" rx="8" fill="#FFFFFF" stroke="#94A3B8" stroke-width="1.2"/>
  <text x="875" y="124" text-anchor="middle" font-size="15" font-weight="600" fill="#334155">Unified</text>

  <!-- ===== Band 2: Loop (composable) ===== -->
  <rect x="88" y="168" width="908" height="164" rx="14" fill="#EEF2F9" stroke="#C7D2DE" stroke-width="1.4"/>
  <text x="104" y="244" text-anchor="start" font-size="17" font-weight="800" fill="#475569">Loop</text>
  <text x="104" y="261" text-anchor="start" font-size="11" font-weight="600" fill="#64748B" letter-spacing="0.5">Composable</text>
  <rect x="211" y="198" width="128" height="36" rx="9" fill="#FFF7ED" stroke="#F97316" stroke-width="1.7"/>
  <text x="275" y="222" text-anchor="middle" font-size="15" font-weight="700" fill="#9A3412">Model ⇄</text>
  <rect x="393" y="198" width="164" height="36" rx="9" fill="#FFF7ED" stroke="#F97316" stroke-width="1.7"/>
  <text x="475" y="222" text-anchor="middle" font-size="15" font-weight="700" fill="#9A3412">Reward Service ⇄</text>
  <rect x="809" y="198" width="132" height="36" rx="9" fill="#FFF7ED" stroke="#F97316" stroke-width="1.7"/>
  <text x="875" y="222" text-anchor="middle" font-size="15" font-weight="700" fill="#9A3412">Algorithm ⇄</text>
  <line x1="275" y1="234" x2="275" y2="253" stroke="#F97316" stroke-width="1.8" stroke-dasharray="5 4" marker-end="url(#ao)"/>
  <line x1="475" y1="234" x2="475" y2="253" stroke="#F97316" stroke-width="1.8" stroke-dasharray="5 4" marker-end="url(#ao)"/>
  <line x1="875" y1="234" x2="875" y2="253" stroke="#F97316" stroke-width="1.8" stroke-dasharray="5 4" marker-end="url(#ao)"/>
  <rect x="200" y="253" width="150" height="46" rx="10" fill="#FFFFFF" stroke="#94A3B8" stroke-width="1.6"/>
  <text x="275" y="281" text-anchor="middle" font-size="15.5" font-weight="700" fill="#334155">Rollout</text>
  <rect x="400" y="253" width="150" height="46" rx="10" fill="#FFFFFF" stroke="#94A3B8" stroke-width="1.6"/>
  <text x="475" y="281" text-anchor="middle" font-size="15.5" font-weight="700" fill="#334155">Reward</text>
  <rect x="600" y="253" width="150" height="46" rx="10" fill="#FFFFFF" stroke="#94A3B8" stroke-width="1.6"/>
  <text x="675" y="281" text-anchor="middle" font-size="15.5" font-weight="700" fill="#334155">Advantage</text>
  <rect x="800" y="253" width="150" height="46" rx="10" fill="#FFFFFF" stroke="#94A3B8" stroke-width="1.6"/>
  <text x="875" y="281" text-anchor="middle" font-size="15.5" font-weight="700" fill="#334155">Optimize</text>
  <line x1="350" y1="276" x2="400" y2="276" stroke="#94A3B8" stroke-width="2" marker-end="url(#a)"/>
  <line x1="550" y1="276" x2="600" y2="276" stroke="#94A3B8" stroke-width="2" marker-end="url(#a)"/>
  <line x1="750" y1="276" x2="800" y2="276" stroke="#94A3B8" stroke-width="2" marker-end="url(#a)"/>
  <path d="M875,299 L875,317 L275,317 L275,299" fill="none" stroke="#94A3B8" stroke-width="1.6" marker-end="url(#a)"/>

  <!-- ===== Band 3: Runtime (scalable) ===== -->
  <rect x="88" y="348" width="908" height="122" rx="14" fill="#EEF2F9" stroke="#C7D2DE" stroke-width="1.4"/>
  <text x="104" y="402" text-anchor="start" font-size="17" font-weight="800" fill="#475569">Runtime</text>
  <text x="104" y="419" text-anchor="start" font-size="11" font-weight="600" fill="#64748B" letter-spacing="0.5">Scalable</text>
  <rect x="200" y="370" width="150" height="58" rx="10" fill="#FFFFFF" stroke="#94A3B8" stroke-width="1.6"/>
  <text x="275" y="393" text-anchor="middle" font-size="15" font-weight="700" fill="#334155">Rollout</text>
  <text x="275" y="413" text-anchor="middle" font-size="12.5" font-weight="600" fill="#9A3412">vLLM / SGLang</text>
  <rect x="400" y="370" width="150" height="58" rx="10" fill="#FFFFFF" stroke="#94A3B8" stroke-width="1.6"/>
  <text x="475" y="393" text-anchor="middle" font-size="15" font-weight="700" fill="#334155">Samples Sync</text>
  <text x="475" y="413" text-anchor="middle" font-size="12.5" font-weight="600" fill="#9A3412">Transfer Queue</text>
  <rect x="600" y="370" width="150" height="58" rx="10" fill="#FFFFFF" stroke="#94A3B8" stroke-width="1.6"/>
  <text x="675" y="393" text-anchor="middle" font-size="15" font-weight="700" fill="#334155">Train</text>
  <text x="675" y="413" text-anchor="middle" font-size="12.5" font-weight="600" fill="#9A3412">FSDP2</text>
  <rect x="800" y="370" width="150" height="58" rx="10" fill="#FFFFFF" stroke="#94A3B8" stroke-width="1.6"/>
  <text x="875" y="393" text-anchor="middle" font-size="15" font-weight="700" fill="#334155">Weight Sync</text>
  <text x="875" y="413" text-anchor="middle" font-size="12.5" font-weight="600" fill="#9A3412">IPC / NCCL / RDMA</text>
  <line x1="350" y1="399" x2="400" y2="399" stroke="#94A3B8" stroke-width="2" marker-end="url(#a)"/>
  <line x1="550" y1="399" x2="600" y2="399" stroke="#94A3B8" stroke-width="2" marker-end="url(#a)"/>
  <line x1="750" y1="399" x2="800" y2="399" stroke="#94A3B8" stroke-width="2" marker-end="url(#a)"/>
  <path d="M875,428 L875,446 L275,446 L275,428" fill="none" stroke="#94A3B8" stroke-width="1.6" marker-end="url(#a)"/>
</svg>
